#!OML:ASF F:\VICON\USERDATA\INSTALL\rory3\rory3.ASF
:FULLY-SPECIFIED
:DEGREES
11
root -0.6810460000000004 18.5364 -16.553500000000014 1.021240000000001 6.497440000000015 -4.580690000000001
lfemur -25.651499999999977 -3.0839700000000025 -20.1672
ltibia 22.970499999999937
lfoot 3.264989999999995 -12.262400000000007
ltoes -16.904300000000006
rfemur 3.2541799999999768 3.5645500000000014 32.1851
rtibia 72.858
rfoot 26.143199999999993 -13.328700000000008
rtoes 19.25509999999998
lowerback 13.853599999999998 1.699590000000001 3.6956600000000046
upperback -1.05116 3.019509999999998 1.5196300000000003
thorax -8.81684 1.3202599999999998 -1.0962999999999985
lowerneck -18.3723 -5.461540000000003 -1.44976
upperneck 15.212399999999999 -7.60726 2.83736
head 7.88349 -3.4144099999999993 0.25554799999999983
lclavicle -1.261039999999999e-14 1.4908900000000056e-15
lhumerus -68.94399999999999 -6.832030000000016 98.4683
lradius 103.423
lwrist 32.9946
lhand -23.912400000000005 0.9113389999999993
lfingers 7.12502
lthumb 2.5620000000000007 30.8757
rclavicle -1.261039999999999e-14 1.4908900000000056e-15
rhumerus -45.96820000000001 17.66069999999998 -100.593
rradius 112.028
rwrist -6.983720000000003
rhand -19.2384 40.0632
rfingers 7.12502
rthumb 7.075010000000001 10.2014
12
root -0.6738859999999994 18.1512 -15.096100000000025 -0.6319100000000049 8.632620000000017 -4.2486200000000025
lfemur -24.916199999999982 -4.20656 -20.9697
ltibia 30.8549
lfoot -2.6013199999999963 -15.721299999999994
ltoes -2.7595100000000015
rfemur -1.4423399999999873 -1.1338799999999982 29.862
rtibia 84.87859999999998
rfoot 21.820400000000014 -14.81750000000001
rtoes 10.217700000000004
lowerback 15.6528 0.7428739999999999 3.579219999999994
upperback -0.7077189999999995 1.7811499999999996 1.265880000000001
thorax -9.51428 0.710874 -1.0791999999999993
lowerneck -18.203099999999992 -5.436840000000002 -1.7489899999999998
upperneck 15.382299999999999 -7.684150000000005 3.752510000000001
head 7.96638 -3.374620000000001 0.595373
lclavicle -1.4414999999999998e-14 3.106010000000015e-15
lhumerus -65.96189999999997 -9.669240000000006 99.4082
lradius 103.56
lwrist 32.0728
lhand -24.9056 -0.30872000000000344
lfingers 7.12502
lthumb 1.6027700000000003 29.665
rclavicle -1.4414999999999998e-14 3.106010000000015e-15
rhumerus -47.87970000000001 15.63870000000001 -101.58199999999998
rradius 108.977
rwrist -8.091709999999999
rhand -18.3413 39.7941
rfingers 7.12502
rthumb 7.9409699999999965 9.96328
13
root -0.6419870000000004 17.6832 -13.638699999999968 -1.443430000000009 6.8737799999999964 -3.8860800000000024
lfemur -23.751500000000007 -3.501830000000002 -21.6148
ltibia 40.95959999999997
lfoot -11.770499999999998 -10.711399999999992
ltoes -1.5494300000000152
rfemur -7.638069999999987 -2.1090799999999987 27.0496
rtibia 96.09899999999996
rfoot 21.07320000000003 -13.1636
rtoes 16.75530000000001
lowerback 16.497299999999996 1.0708700000000004 2.7687700000000013
upperback -0.0810291999999988 2.0672200000000003 1.152009999999999
thorax -9.31492 0.8915220000000001 -0.8248319999999983
lowerneck -18.957100000000004 -5.346249999999999 -1.6914200000000004
upperneck 15.242900000000002 -7.620299999999997 4.051630000000003
head 8.05929 -3.300180000000002 0.676018
lclavicle 2.6647900000000017e-14 6.0015899999999974e-15
lhumerus -61.0847 -12.545199999999998 100.141
lradius 104.07300000000001
lwrist 33.4506
lhand -25.856200000000005 0.7974870000000007
lfingers 7.12502
lthumb 0.6846069999999982 30.776099999999996
rclavicle 2.6647900000000017e-14 6.0015899999999974e-15
rhumerus -48.4543 14.403499999999998 -101.75299999999999
rradius 104.67300000000002
rwrist -7.877909999999999
rhand -19.721600000000002 40.7391
rfingers 7.12502
rthumb 6.608550000000003 10.862200000000001
14
root -0.6484519999999996 17.3439 -12.230500000000003 -0.919679999999989 5.838120000000005 -1.197350000000002
lfemur -20.576500000000003 -3.2876099999999955 -24.940400000000007
ltibia 45.960899999999995
lfoot -20.120700000000024 -4.839219999999996
ltoes -2.113609999999996
rfemur -16.737900000000007 -3.9531999999999994 21.67899999999999
rtibia 105.49199999999996
rfoot 21.48100000000001 -7.948310000000005
rtoes 20.7458
lowerback 17.217099999999995 1.2889699999999993 -0.6732819999999962
upperback 0.10499400000000225 1.6157099999999998 0.4058429999999973
thorax -9.60202 0.8143770000000001 0.4161539999999989
lowerneck -19.7993 -5.199999999999997 -1.3852800000000012
upperneck 15.0818 -7.527090000000001 4.23302
head 8.14386 -3.2078099999999967 0.6818129999999999
lclavicle 2.0126900000000004e-14 -1.2920999999999957e-15
lhumerus -54.975300000000004 -14.938499999999998 99.9882
lradius 104.801
lwrist 35.34040000000001
lhand -23.8128 0.554185000000003
lfingers 7.12502
lthumb 2.6581399999999986 30.5174
rclavicle 2.0126900000000004e-14 -1.2920999999999957e-15
rhumerus -49.7117 12.533699999999996 -101.741
rradius 100.855
rwrist -7.755650000000003
rhand -20.117399999999993 38.011500000000005
rfingers 7.12502
rthumb 6.226479999999993 8.122989999999998
